<svg width="834" height="888" viewBox="0 0 834 888" fill="none" xmlns="http://www.w3.org/2000/svg">
<g filter="url(#filter0_d_1_42)">
<path d="M1.5 342L65.65 361.49C71.78 363.35 77.61 366.1 82.95 369.65L345.1 543.71C363.5 555.93 374.56 576.55 374.56 598.64V877.23H1.5V342Z" fill="#6F6F6F"/>
</g>
<g filter="url(#filter1_d_1_42)">
<path d="M814.61 342L750.46 361.49C744.33 363.35 738.5 366.1 733.16 369.65L471.01 543.71C452.61 555.93 441.55 576.55 441.55 598.64V877.23H814.61V342Z" fill="#6F6F6F"/>
</g>
<g filter="url(#filter2_d_1_42)">
<path d="M814.62 877.23H1.51001L17.75 844.15C25.78 827.8 37.28 813.4 51.46 801.97L294.19 606.1C316.42 588.16 344.12 578.38 372.69 578.38H443.44C472 578.38 499.7 588.16 521.93 606.1L764.67 801.97C778.84 813.4 790.34 827.8 798.37 844.15L814.62 877.23Z" fill="#6F6F6F"/>
</g>
<defs>
<filter id="filter0_d_1_42" x="0" y="332" width="393.06" height="555.23" filterUnits="userSpaceOnUse" color-interpolation-filters="sRGB">
<feFlood flood-opacity="0" result="BackgroundImageFix"/>
<feColorMatrix in="SourceAlpha" type="matrix" values="0 0 0 0 0 0 0 0 0 0 0 0 0 0 0 0 0 0 127 0" result="hardAlpha"/>
<feOffset dx="8.5"/>
<feGaussianBlur stdDeviation="5"/>
<feColorMatrix type="matrix" values="0 0 0 0 0.137255 0 0 0 0 0.0980392 0 0 0 0 0.0862745 0 0 0 0.5 0"/>
<feBlend mode="normal" in2="BackgroundImageFix" result="effect1_dropShadow_1_42"/>
<feBlend mode="normal" in="SourceGraphic" in2="effect1_dropShadow_1_42" result="shape"/>
</filter>
<filter id="filter1_d_1_42" x="440.05" y="332" width="393.06" height="555.23" filterUnits="userSpaceOnUse" color-interpolation-filters="sRGB">
<feFlood flood-opacity="0" result="BackgroundImageFix"/>
<feColorMatrix in="SourceAlpha" type="matrix" values="0 0 0 0 0 0 0 0 0 0 0 0 0 0 0 0 0 0 127 0" result="hardAlpha"/>
<feOffset dx="8.5"/>
<feGaussianBlur stdDeviation="5"/>
<feColorMatrix type="matrix" values="0 0 0 0 0.137255 0 0 0 0 0.0980392 0 0 0 0 0.0862745 0 0 0 0.5 0"/>
<feBlend mode="normal" in2="BackgroundImageFix" result="effect1_dropShadow_1_42"/>
<feBlend mode="normal" in="SourceGraphic" in2="effect1_dropShadow_1_42" result="shape"/>
</filter>
<filter id="filter2_d_1_42" x="0.0100098" y="568.38" width="833.11" height="318.85" filterUnits="userSpaceOnUse" color-interpolation-filters="sRGB">
<feFlood flood-opacity="0" result="BackgroundImageFix"/>
<feColorMatrix in="SourceAlpha" type="matrix" values="0 0 0 0 0 0 0 0 0 0 0 0 0 0 0 0 0 0 127 0" result="hardAlpha"/>
<feOffset dx="8.5"/>
<feGaussianBlur stdDeviation="5"/>
<feColorMatrix type="matrix" values="0 0 0 0 0.137255 0 0 0 0 0.0980392 0 0 0 0 0.0862745 0 0 0 0.5 0"/>
<feBlend mode="normal" in2="BackgroundImageFix" result="effect1_dropShadow_1_42"/>
<feBlend mode="normal" in="SourceGraphic" in2="effect1_dropShadow_1_42" result="shape"/>
</filter>
</defs>
</svg>
