<svg viewBox="0 0 814 878" fill="none" xmlns="http://www.w3.org/2000/svg">
<path d="M0 342L64.15 361.49C70.28 363.35 76.11 366.1 81.45 369.65L343.6 543.71C362 555.93 373.06 576.55 373.06 598.64V877.23H0V342Z" fill="#6F6F6F"/>
<path d="M813.11 342L748.96 361.49C742.83 363.35 737 366.1 731.66 369.65L469.51 543.71C451.11 555.93 440.05 576.55 440.05 598.64V877.23H813.11V342Z" fill="#6F6F6F"/>
<path d="M813.12 877.23H0.0100098L16.25 844.15C24.28 827.8 35.78 813.4 49.96 801.97L292.69 606.1C314.92 588.16 342.62 578.38 371.19 578.38H441.94C470.5 578.38 498.2 588.16 520.43 606.1L763.17 801.97C777.34 813.4 788.84 827.8 796.87 844.15L813.12 877.23Z" fill="#6F6F6F"/>
</svg>
